<svg width="35" height="33" viewBox="0 0 35 33" fill="none" xmlns="http://www.w3.org/2000/svg">
<path d="M12.3636 18.2058C12.3636 17.7924 12.008 17.4575 11.5692 17.4575H8.79692C8.35863 17.4575 8.00293 17.7924 8.00293 18.2058V20.8193C8.00293 21.2332 8.35863 21.5683 8.79692 21.5683H11.5692C12.008 21.5683 12.3636 21.2332 12.3636 20.8193V18.2058Z" fill="#C5B697"/>
<path d="M19.2919 18.2058C19.2919 17.7924 18.9362 17.4575 18.4982 17.4575H15.7256C15.2873 17.4575 14.9316 17.7924 14.9316 18.2058V20.8193C14.9316 21.2332 15.2873 21.5683 15.7256 21.5683H18.4982C18.9362 21.5683 19.2919 21.2332 19.2919 20.8193V18.2058Z" fill="#C5B697"/>
<path d="M26.221 18.2058C26.221 17.7924 25.8653 17.4575 25.427 17.4575H22.6548C22.216 17.4575 21.8604 17.7924 21.8604 18.2058V20.8193C21.8604 21.2332 22.216 21.5683 22.6548 21.5683H25.427C25.8653 21.5683 26.221 21.2332 26.221 20.8193V18.2058Z" fill="#C5B697"/>
<path d="M12.3636 24.7389C12.3636 24.3249 12.008 23.9902 11.5692 23.9902H8.79692C8.35863 23.9902 8.00293 24.3249 8.00293 24.7389V27.3519C8.00293 27.7656 8.35863 28.1006 8.79692 28.1006H11.5692C12.008 28.1006 12.3636 27.7655 12.3636 27.3519V24.7389Z" fill="#C5B697"/>
<path d="M19.2919 24.7389C19.2919 24.3249 18.9362 23.9902 18.4982 23.9902H15.7256C15.2873 23.9902 14.9316 24.3249 14.9316 24.7389V27.3519C14.9316 27.7656 15.2873 28.1006 15.7256 28.1006H18.4982C18.9362 28.1006 19.2919 27.7655 19.2919 27.3519V24.7389Z" fill="#C5B697"/>
<path d="M26.221 24.7389C26.221 24.3249 25.8653 23.9902 25.4274 23.9902H22.6548C22.216 23.9902 21.8604 24.3249 21.8604 24.7389V27.3519C21.8604 27.7656 22.216 28.1006 22.6548 28.1006H25.4274C25.8653 28.1006 26.221 27.7655 26.221 27.3519V24.7389Z" fill="#C5B697"/>
<path d="M31.1778 3.67449V7.66638C31.1778 9.47067 29.6254 10.9247 27.712 10.9247H25.5257C23.6122 10.9247 22.0392 9.47067 22.0392 7.66638V3.66016H12.1849V7.66638C12.1849 9.47067 10.612 10.9247 8.69874 10.9247H6.51199C4.5987 10.9247 3.04635 9.47067 3.04635 7.66638V3.67449C1.37411 3.72201 0 5.02666 0 6.63025V30.0246C0 31.6584 1.40444 33.0001 3.13719 33.0001H31.0869C32.8171 33.0001 34.2241 31.6556 34.2241 30.0246V6.63025C34.2241 5.02666 32.85 3.72201 31.1778 3.67449ZM30.1623 28.5678C30.1623 29.2738 29.5552 29.8466 28.8061 29.8466H5.35828C4.60917 29.8466 4.00202 29.2738 4.00202 28.5678V16.4838C4.00202 15.7775 4.6091 15.2047 5.35828 15.2047H28.806C29.5551 15.2047 30.1623 15.7775 30.1623 16.4838L30.1623 28.5678Z" fill="#C5B697"/>
<path d="M6.50405 8.78453H8.66664C9.32304 8.78453 9.85526 8.28346 9.85526 7.66457V1.12037C9.85526 0.501403 9.32304 0 8.66664 0H6.50405C5.84758 0 5.31543 0.501403 5.31543 1.12037V7.66457C5.31543 8.28346 5.84758 8.78453 6.50405 8.78453Z" fill="#C5B697"/>
<path d="M25.4981 8.78453H27.6607C28.3167 8.78453 28.8489 8.28346 28.8489 7.66457V1.12037C28.849 0.501403 28.3168 0 27.6607 0H25.4981C24.8418 0 24.3096 0.501403 24.3096 1.12037V7.66457C24.3096 8.28346 24.8418 8.78453 25.4981 8.78453Z" fill="#C5B697"/>
</svg>
