<svg width="186" height="30" viewBox="0 0 186 30" fill="none" xmlns="http://www.w3.org/2000/svg">
<path d="M0.93625 29.12C0.402917 29.12 0.13625 28.8667 0.13625 28.36C0.13625 28.2267 0.189583 28.0267 0.29625 27.76C0.429583 27.52 0.61625 27.1733 0.85625 26.72L3.13625 22.48C4.36292 20.2667 5.42958 18.24 6.33625 16.4C7.26958 14.5333 8.06958 12.8667 8.73625 11.4C10.7363 6.84 11.7363 3.38666 11.7363 1.04C11.7363 0.879999 11.8429 0.693332 12.0563 0.479998C12.2963 0.266666 12.5229 0.16 12.7363 0.16C13.0563 0.16 13.2163 0.466667 13.2163 1.08C13.2163 2.81333 12.5896 5.44 11.3363 8.96C10.8296 10.2933 10.3096 11.5867 9.77625 12.84C9.24292 14.0933 8.68292 15.3067 8.09625 16.48C9.24292 15.0933 10.4296 13.7467 11.6563 12.44C12.8829 11.1333 14.1629 9.86667 15.4963 8.64C19.4429 4.93333 22.3229 3.08 24.1363 3.08C25.2829 3.08 25.8563 3.82666 25.8563 5.32C25.8563 6.92 25.0696 9.8 23.4963 13.96C21.4696 19.1867 20.3496 22.1867 20.1363 22.96C26.1896 15.6267 32.3496 10.28 38.6163 6.92C39.4696 6.46666 40.3629 6.02666 41.2963 5.6C42.2563 5.14667 42.9896 4.92 43.4963 4.92C44.2429 4.92 44.6163 5.37333 44.6163 6.28C44.6163 6.73333 44.5363 7.28 44.3763 7.92C44.2163 8.56 43.9496 9.26667 43.5763 10.04L39.8963 17.84C39.5496 18.5867 39.1629 19.4133 38.7363 20.32C38.3363 21.2267 37.9496 22.1333 37.5763 23.04C37.2296 23.92 36.9363 24.72 36.6963 25.44C36.4563 26.1333 36.3363 26.6667 36.3363 27.04C36.3363 27.4667 36.5096 27.68 36.8563 27.68C37.3896 27.68 38.0563 27.36 38.8563 26.72C39.6829 26.08 40.5629 25.2667 41.4963 24.28C41.6296 24.12 41.8029 23.9333 42.0163 23.72C42.2563 23.5067 42.4696 23.4 42.6563 23.4C43.0829 23.4 43.2963 23.64 43.2963 24.12C43.2963 24.2 43.2696 24.2933 43.2163 24.4C43.1629 24.48 43.0429 24.6133 42.8563 24.8C42.5096 25.1467 42.1629 25.4933 41.8163 25.84C41.4696 26.1867 41.1496 26.4933 40.8563 26.76C40.1629 27.3467 39.4296 27.8667 38.6563 28.32C37.9096 28.8 37.1896 29.04 36.4963 29.04C35.4029 29.04 34.8563 28.4267 34.8563 27.2C34.8563 26.4533 35.1229 25.2933 35.6563 23.72C36.1896 22.1467 37.0029 20.16 38.0963 17.76L42.2963 8.64C42.5896 8.02667 42.7763 7.6 42.8563 7.36C42.9363 7.09333 42.9763 6.90667 42.9763 6.8C42.9763 6.64 42.9096 6.56 42.7763 6.56C42.7229 6.56 42.5763 6.6 42.3363 6.68C42.1229 6.73333 41.7363 6.89333 41.1763 7.16C39.5496 7.90667 37.7629 8.90667 35.8163 10.16C33.8696 11.4133 32.0563 12.7733 30.3763 14.24C29.0163 15.4133 27.8029 16.5333 26.7363 17.6C25.6696 18.6667 24.6296 19.7733 23.6163 20.92C22.6029 22.0667 21.4829 23.3733 20.2563 24.84C19.9096 25.24 19.6696 25.52 19.5363 25.68C19.4029 25.8133 19.1896 25.88 18.8963 25.88C18.4429 25.88 18.2163 25.64 18.2163 25.16C18.2163 24.6533 18.3229 23.9867 18.5363 23.16C18.7496 22.3333 19.0163 21.4933 19.3363 20.64L22.2963 12.72C23.0163 10.7733 23.5496 9.16 23.8963 7.88C24.2429 6.6 24.4163 5.64 24.4163 5C24.4163 4.46667 24.1896 4.2 23.7363 4.2C22.8563 4.2 20.8696 5.61333 17.7763 8.44C16.7096 9.42667 15.7096 10.3733 14.7763 11.28C13.8429 12.1867 12.9896 13.0667 12.2163 13.92C11.1763 15.04 10.2296 16.1067 9.37625 17.12C8.52292 18.1333 7.69625 19.1867 6.89625 20.28C6.12292 21.3467 5.32292 22.5333 4.49625 23.84C3.66958 25.1467 2.77625 26.6667 1.81625 28.4C1.54958 28.88 1.25625 29.12 0.93625 29.12ZM50.6088 26.8C48.4488 26.8 47.3688 25.5867 47.3688 23.16C47.3688 22.04 47.6354 20.8667 48.1688 19.64C48.7021 18.4133 49.4088 17.28 50.2888 16.24C51.1688 15.1733 52.1421 14.3067 53.2088 13.64C54.3021 12.9733 55.4088 12.64 56.5288 12.64C57.5154 12.64 58.2354 13.0133 58.6888 13.76C59.1421 14.5067 59.3688 15.3333 59.3688 16.24C59.3688 17.44 59.1288 18.6667 58.6488 19.92C58.1688 21.1467 57.5154 22.28 56.6888 23.32C55.8621 24.36 54.9288 25.2 53.8888 25.84C52.8488 26.48 51.7554 26.8 50.6088 26.8ZM50.5688 25.52C50.7288 25.52 50.8221 25.5067 50.8487 25.48C51.8888 25.3467 52.8488 24.9733 53.7288 24.36C54.6088 23.7467 55.3688 22.9867 56.0088 22.08C56.6754 21.1467 57.1821 20.1467 57.5288 19.08C57.8754 18.0133 58.0488 16.96 58.0488 15.92C58.0488 15.3067 57.8754 14.8267 57.5288 14.48C57.1821 14.1333 56.7421 13.96 56.2088 13.96C55.4354 13.96 54.6088 14.28 53.7288 14.92C52.8754 15.56 52.0621 16.3733 51.2888 17.36C50.5421 18.3467 49.9288 19.3867 49.4488 20.48C48.9688 21.5467 48.7288 22.5067 48.7288 23.36C48.7288 24.8 49.3421 25.52 50.5688 25.52ZM59.3291 28.36C58.8757 28.36 58.6491 28.1467 58.6491 27.72C58.6491 27.6933 58.8091 27.36 59.1291 26.72C59.4491 26.08 59.9024 25.1333 60.4891 23.88L62.5291 19.6C63.3557 17.8667 63.9424 16.4933 64.2891 15.48C64.6624 14.4667 64.8491 13.8133 64.8491 13.52C64.8491 13.0933 65.0624 12.88 65.4891 12.88C65.9157 12.88 66.1291 13.0933 66.1291 13.52C66.1291 13.8667 66.0091 14.4133 65.7691 15.16C65.5557 15.88 65.1957 16.8133 64.6891 17.96L62.6491 22.6C68.2224 15.56 72.4224 12.04 75.2491 12.04C75.7824 12.04 76.1957 12.2667 76.4891 12.72C76.7824 13.1467 76.9291 13.6267 76.9291 14.16C76.9291 15.44 76.0091 17.6667 74.1691 20.84C75.5824 19.4 77.0091 17.96 78.4491 16.52C79.9157 15.0533 81.3824 13.6133 82.8491 12.2C83.2224 11.8533 83.5291 11.68 83.7691 11.68C84.0891 11.68 84.3557 11.84 84.5691 12.16C84.7824 12.4533 84.8891 12.7733 84.8891 13.12C84.8891 13.3867 84.7691 13.72 84.5291 14.12C84.1824 14.7067 83.8624 15.4133 83.5691 16.24C83.2757 17.04 82.9424 17.9467 82.5691 18.96C82.1424 20.1067 81.8357 21.1067 81.6491 21.96C81.4624 22.8133 81.3691 23.5067 81.3691 24.04C81.3691 24.7067 81.5291 25.2 81.8491 25.52C82.1691 25.8133 82.4891 25.96 82.8091 25.96C83.3691 25.96 83.9824 25.8133 84.6491 25.52C85.3157 25.2267 85.8624 24.9333 86.2891 24.64C87.1424 24.08 88.0357 23.3867 88.9691 22.56C89.9024 21.7067 90.7957 20.8533 91.6491 20C91.7557 19.8933 91.9157 19.84 92.1291 19.84C92.5291 19.84 92.7291 20 92.7291 20.32C92.7291 20.6133 92.5424 20.9467 92.1691 21.32C91.1024 22.3867 90.1424 23.3067 89.2891 24.08C88.4357 24.8267 87.6224 25.44 86.8491 25.92C86.3424 26.2133 85.7291 26.52 85.0091 26.84C84.2891 27.16 83.5157 27.32 82.6891 27.32C81.9157 27.32 81.2624 27.08 80.7291 26.6C80.2224 26.12 79.9691 25.0933 79.9691 23.52C79.9691 22.9067 80.0757 22.1867 80.2891 21.36C80.5024 20.5067 80.8224 19.56 81.2491 18.52L83.3691 13.48L77.6491 19.24C76.9824 19.9067 76.4357 20.4667 76.0091 20.92C75.5824 21.3733 75.2357 21.7467 74.9691 22.04C74.4624 22.5733 74.0091 23.0933 73.6091 23.6C73.2357 24.1067 72.9157 24.5467 72.6491 24.92C72.4624 25.2133 72.2491 25.36 72.0091 25.36C71.5557 25.36 71.3291 25.1733 71.3291 24.8C71.3291 23.9733 72.0757 22.0667 73.5691 19.08C75.0624 16.0933 75.8091 14.3067 75.8091 13.72C75.8091 13.4533 75.5157 13.32 74.9291 13.32C72.5557 13.32 68.3291 17.2 62.2491 24.96C61.7424 25.68 60.9024 26.76 59.7291 28.2C59.6491 28.3067 59.5157 28.36 59.3291 28.36ZM94.3375 27.72C93.2175 27.72 92.3375 27.3333 91.6975 26.56C91.0575 25.7867 90.7375 24.84 90.7375 23.72C90.7375 21.8 91.3775 19.8267 92.6575 17.8C93.0042 17.24 93.4042 16.6933 93.8575 16.16C94.3108 15.6 94.8042 15.0667 95.3375 14.56C96.1375 13.7867 96.9775 13.1467 97.8575 12.64C98.7375 12.1333 99.5908 11.88 100.418 11.88C101.778 11.88 102.458 12.52 102.458 13.8C102.458 15.4 101.524 16.8533 99.6575 18.16C97.9242 19.3333 96.2175 19.92 94.5375 19.92C94.2442 19.92 93.9775 19.9067 93.7375 19.88C93.5242 19.8267 93.3242 19.7733 93.1375 19.72C92.8708 20.2267 92.6308 20.88 92.4175 21.68C92.2042 22.48 92.0975 23.1733 92.0975 23.76C92.0975 25.52 92.8708 26.4 94.4175 26.4C95.6708 26.4 96.8575 26.1867 97.9775 25.76C99.0975 25.3067 100.431 24.4667 101.978 23.24C102.938 22.4933 103.658 21.8933 104.138 21.44C104.618 20.9867 105.138 20.5067 105.698 20C105.858 19.8933 106.004 19.84 106.138 19.84C106.271 19.84 106.404 19.88 106.538 19.96C106.671 20.04 106.738 20.16 106.738 20.32C106.738 20.6133 106.471 21.0267 105.938 21.56C105.484 21.9867 105.004 22.44 104.498 22.92C103.991 23.3733 103.191 24.0133 102.098 24.84C100.924 25.7467 99.6442 26.4533 98.2575 26.96C96.8708 27.4667 95.5642 27.72 94.3375 27.72ZM94.2975 18.64C95.1508 18.64 95.9642 18.5067 96.7375 18.24C97.5108 17.9733 98.2442 17.5867 98.9375 17.08C100.484 15.9333 101.258 14.8533 101.258 13.84C101.258 13.3867 100.978 13.16 100.418 13.16C99.3508 13.16 98.1108 13.8133 96.6975 15.12C96.0042 15.76 95.4308 16.3467 94.9775 16.88C94.5508 17.3867 94.1508 17.9467 93.7775 18.56C93.9375 18.6133 94.1108 18.64 94.2975 18.64ZM103 28C102.573 28 102.36 27.8267 102.36 27.48C102.36 27.3467 102.413 27.1867 102.52 27C102.627 26.7867 102.72 26.6133 102.8 26.48L106.4 19.24C107.947 16.0933 108.72 14.3467 108.72 14C108.72 13.6267 108.907 13.44 109.28 13.44C109.787 13.44 110.04 13.7067 110.04 14.24C110.04 14.4267 109.92 14.8267 109.68 15.44C109.44 16.0533 109.133 16.7467 108.76 17.52C108.12 18.9067 107.587 19.9733 107.16 20.72C107.96 19.7867 108.773 18.9067 109.6 18.08C110.427 17.2533 111.267 16.4667 112.12 15.72C114.653 13.5067 116.6 12.4 117.96 12.4C118.893 12.4 119.36 12.84 119.36 13.72C119.36 14.52 118.68 16.32 117.32 19.12C115.96 21.9467 115.28 23.7333 115.28 24.48C115.28 24.8267 115.4 25 115.64 25C115.72 25 115.84 24.9733 116 24.92C116.187 24.84 116.373 24.8 116.56 24.8C117.013 24.8 117.24 25.0133 117.24 25.44C117.24 25.9733 116.667 26.24 115.52 26.24C114.987 26.24 114.6 26.12 114.36 25.88C114.12 25.6133 114 25.2667 114 24.84C114 23.56 114.653 21.6133 115.96 19C117.267 16.4133 117.92 14.8533 117.92 14.32C117.92 14 117.8 13.84 117.56 13.84C116.973 13.84 116.027 14.3333 114.72 15.32C113.307 16.3867 111.893 17.6133 110.48 19C109.067 20.3867 107.72 21.9733 106.44 23.76L103.64 27.64C103.48 27.88 103.267 28 103 28ZM120.338 29.76C119.832 29.76 119.578 29.36 119.578 28.56C119.578 27.3867 120.232 25.3333 121.538 22.4C122.872 19.4667 124.845 15.6267 127.458 10.88C126.445 10.88 125.485 11.0133 124.578 11.28C123.698 11.52 123.232 11.8267 123.178 12.2C123.152 12.3067 123.085 12.4133 122.978 12.52C122.898 12.6 122.765 12.64 122.578 12.64C122.152 12.64 121.938 12.4267 121.938 12C121.938 11.3067 122.485 10.7333 123.578 10.28C124.672 9.82667 126.205 9.6 128.178 9.6L130.938 5.04C131.125 4.74667 131.325 4.42667 131.538 4.08C131.752 3.70667 131.992 3.30667 132.258 2.88C132.525 2.50666 132.832 2.32 133.178 2.32C133.392 2.32 133.552 2.38666 133.658 2.52C133.765 2.62666 133.818 2.74667 133.818 2.88C133.818 3.28 133.232 4.34667 132.058 6.08C130.592 8.24 129.805 9.41333 129.698 9.6C130.098 9.6 130.698 9.64 131.498 9.72C132.298 9.77333 133.245 9.86667 134.338 10C134.738 10.0267 134.938 10.2267 134.938 10.6C134.938 11.0267 134.698 11.24 134.218 11.24C134.032 11.24 133.658 11.2133 133.098 11.16C132.538 11.08 131.938 11.0133 131.298 10.96C130.658 10.9067 130.112 10.8933 129.658 10.92L129.058 10.96C123.645 20.48 120.952 26.4 120.978 28.72L121.018 29.04V29.12C121.018 29.5467 120.792 29.76 120.338 29.76ZM132.679 26.8C130.519 26.8 129.439 25.5867 129.439 23.16C129.439 22.04 129.706 20.8667 130.239 19.64C130.772 18.4133 131.479 17.28 132.359 16.24C133.239 15.1733 134.212 14.3067 135.279 13.64C136.372 12.9733 137.479 12.64 138.599 12.64C139.586 12.64 140.306 13.0133 140.759 13.76C141.212 14.5067 141.439 15.3333 141.439 16.24C141.439 17.44 141.199 18.6667 140.719 19.92C140.239 21.1467 139.586 22.28 138.759 23.32C137.932 24.36 136.999 25.2 135.959 25.84C134.919 26.48 133.826 26.8 132.679 26.8ZM132.639 25.52C132.799 25.52 132.892 25.5067 132.919 25.48C133.959 25.3467 134.919 24.9733 135.799 24.36C136.679 23.7467 137.439 22.9867 138.079 22.08C138.746 21.1467 139.252 20.1467 139.599 19.08C139.946 18.0133 140.119 16.96 140.119 15.92C140.119 15.3067 139.946 14.8267 139.599 14.48C139.252 14.1333 138.812 13.96 138.279 13.96C137.506 13.96 136.679 14.28 135.799 14.92C134.946 15.56 134.132 16.3733 133.359 17.36C132.612 18.3467 131.999 19.3867 131.519 20.48C131.039 21.5467 130.799 22.5067 130.799 23.36C130.799 24.8 131.412 25.52 132.639 25.52ZM153.919 28.36C152.613 28.36 151.959 27.4133 151.959 25.52C151.959 24.5067 152.199 23.28 152.679 21.84C149.453 25.6 146.919 27.48 145.079 27.48C143.559 27.48 142.799 26.56 142.799 24.72C142.799 24.0267 142.906 23.2 143.119 22.24C143.359 21.2533 143.666 20.24 144.039 19.2C144.439 18.16 144.866 17.1867 145.319 16.28C145.773 15.3733 146.226 14.64 146.679 14.08C146.839 13.8933 147.039 13.8 147.279 13.8C147.413 13.8 147.546 13.8533 147.679 13.96C147.813 14.04 147.879 14.1733 147.879 14.36C147.879 14.52 147.786 14.7467 147.599 15.04C146.399 17.0133 145.546 18.7333 145.039 20.2C144.399 21.88 144.079 23.3333 144.079 24.56C144.079 25.7067 144.373 26.28 144.959 26.28C145.333 26.28 145.826 26.0933 146.439 25.72C147.053 25.3467 147.679 24.8933 148.319 24.36C148.986 23.8 149.559 23.28 150.039 22.8C151.373 21.3867 152.573 19.88 153.639 18.28C154.119 17.5333 154.546 16.8133 154.919 16.12C155.319 15.4 155.679 14.6533 155.999 13.88C156.133 13.5867 156.239 13.3733 156.319 13.24C156.426 13.08 156.573 13 156.759 13C157.319 13 157.599 13.2133 157.599 13.64C157.599 13.9067 157.506 14.0933 157.319 14.2C154.599 19.72 153.239 23.52 153.239 25.6C153.239 26.16 153.293 26.56 153.399 26.8C153.506 27.0133 153.693 27.12 153.959 27.12C154.333 27.12 154.906 26.88 155.679 26.4C156.479 25.92 157.413 25.1867 158.479 24.2L162.679 20.36C162.893 20.1467 163.093 20.04 163.279 20.04C163.706 20.04 163.919 20.24 163.919 20.64C163.919 20.9867 163.079 21.92 161.399 23.44C160.679 24.1067 160.039 24.6667 159.479 25.12C158.919 25.5733 158.399 25.9733 157.919 26.32C157.013 26.96 156.213 27.4533 155.519 27.8C154.826 28.1733 154.293 28.36 153.919 28.36ZM160.109 28C159.683 28 159.469 27.8267 159.469 27.48C159.469 27.32 159.509 27.16 159.589 27C159.696 26.84 159.776 26.7067 159.829 26.6L163.469 19.24C165.016 16.0933 165.789 14.3467 165.789 14C165.789 13.6267 165.976 13.44 166.349 13.44C166.856 13.44 167.109 13.6933 167.109 14.2C167.109 14.4667 166.989 14.8933 166.749 15.48C166.509 16.0667 166.203 16.7467 165.829 17.52C165.189 18.9067 164.656 19.9733 164.229 20.72C165.029 19.7867 165.843 18.9067 166.669 18.08C167.496 17.2533 168.336 16.4667 169.189 15.72C171.723 13.5067 173.669 12.4 175.029 12.4C175.963 12.4 176.429 12.84 176.429 13.72C176.429 14.5733 176.149 15 175.589 15C175.323 15 175.123 14.7733 174.989 14.32C174.909 14 174.723 13.84 174.429 13.84C173.976 13.84 173.096 14.3333 171.789 15.32C170.349 16.3867 168.896 17.6533 167.429 19.12C165.989 20.5867 164.456 22.4533 162.829 24.72L160.829 27.52C160.723 27.6533 160.616 27.76 160.509 27.84C160.429 27.9467 160.296 28 160.109 28ZM175.161 28.32C173.668 28.32 172.921 27.8267 172.921 26.84C172.921 26.2267 173.134 25.6133 173.561 25C174.014 24.3867 174.548 23.8267 175.161 23.32C175.774 22.8133 176.348 22.4267 176.881 22.16C177.041 22.08 177.254 22 177.521 21.92C177.814 21.84 178.054 21.8 178.241 21.8C178.454 21.8 178.561 21.88 178.561 22.04C178.561 22.1733 178.414 22.32 178.121 22.48C176.894 23.0667 175.934 23.7733 175.241 24.6C174.574 25.4 174.241 26.0533 174.241 26.56C174.241 27.04 174.654 27.28 175.481 27.28C176.174 27.28 176.921 27.1067 177.721 26.76C178.548 26.4133 179.321 25.96 180.041 25.4C180.788 24.84 181.401 24.24 181.881 23.6C182.361 22.96 182.601 22.3467 182.601 21.76C182.601 21.36 182.468 21 182.201 20.68C181.961 20.36 181.561 20.12 181.001 19.96L178.361 19.16C177.694 18.9467 177.214 18.6667 176.921 18.32C176.628 17.9733 176.481 17.5867 176.481 17.16C176.481 16.36 176.774 15.64 177.361 15C177.974 14.36 178.734 13.8533 179.641 13.48C180.548 13.1067 181.428 12.92 182.281 12.92C183.134 12.92 183.881 13.1333 184.521 13.56C185.161 13.96 185.481 14.5067 185.481 15.2C185.481 15.6 185.361 15.9733 185.121 16.32C184.908 16.6667 184.654 16.84 184.361 16.84C183.908 16.84 183.681 16.6533 183.681 16.28C183.681 16.1467 183.748 15.9867 183.881 15.8C184.041 15.5867 184.121 15.3867 184.121 15.2C184.121 14.4 183.508 14 182.281 14C181.614 14 180.948 14.1467 180.281 14.44C179.641 14.7067 179.108 15.0667 178.681 15.52C178.254 15.9733 178.041 16.4667 178.041 17C178.041 17.5333 178.574 17.96 179.641 18.28L182.201 19.08C182.974 19.32 183.508 19.6533 183.801 20.08C184.094 20.48 184.241 20.9333 184.241 21.44C184.241 22.64 183.508 23.88 182.041 25.16C179.668 27.2667 177.374 28.32 175.161 28.32Z" fill="black"/>
</svg>
